
        <svg xmlns="http://www.w3.org/2000/svg" xmlns:xlink="http://www.w3.org/1999/xlink" version="1.1" width="3187.5" 
        height="1187.5" viewBox="0 0 3187.5 1187.5">
			
			<g transform="scale(9.375) translate(10, 10)">
				<defs id="SvgjsDefs30179"><linearGradient id="SvgjsLinearGradient30184"><stop id="SvgjsStop30185" stop-color="#00ff8f" offset="0"></stop><stop id="SvgjsStop30186" stop-color="#00a1ff" offset="1"></stop></linearGradient></defs><g id="SvgjsG30180" featureKey="Df7oLJ-0" transform="matrix(6.666666507720947,0,0,6.666666507720947,-20,-13.333333333333334)" fill="url(#SvgjsLinearGradient30184)"><title xmlns="http://www.w3.org/2000/svg">App</title><desc xmlns="http://www.w3.org/2000/svg">Created with Sketch.</desc><g xmlns="http://www.w3.org/2000/svg" stroke="none" stroke-width="1" fill="none" fill-rule="evenodd"><g transform="translate(-50.000000, -260.000000)" fill="url(#SvgjsLinearGradient30184)"><g transform="translate(20.000000, 260.000000)"><path d="M42.7638935,3 L36.9931023,3 C34.7873299,3 33,4.78777278 33,6.99310226 L33,13.0068977 C33,15.2126701 34.7877728,17 36.9931023,17 L43.0068977,17 C45.2126701,17 47,15.2122272 47,13.0068977 L47,7.23610651 C47.6137494,6.68678595 48,5.88849981 48,5 C48,3.34314575 46.6568542,2 45,2 C44.1115002,2 43.313214,2.38625064 42.7638935,3 Z M42,5 L36.999615,5 C35.8874333,5 35,5.89525812 35,6.99961498 L35,13.000385 C35,14.1125667 35.8952581,15 36.999615,15 L43.000385,15 C44.1125667,15 45,14.1047419 45,13.000385 L45,8 C43.3431458,8 42,6.65685425 42,5 Z M45,7 C46.1045695,7 47,6.1045695 47,5 C47,3.8954305 46.1045695,3 45,3 C43.8954305,3 43,3.8954305 43,5 C43,6.1045695 43.8954305,7 45,7 Z"></path></g></g></g></g><g id="SvgjsG30181" featureKey="Ua4uQk-0" transform="matrix(2.538715124130249,0,0,2.538715124130249,116.9535410294917,12.12312977920565)" fill="#111111"><path d="M9.16 12.219999999999999 c1.4 0.4 2.84 1.66 2.84 3.66 c0 2.56 -1.6 4.12 -5.1 4.12 l-5.7 0 l0 -14 l5.32 0 c2.94 0 4.42 1.66 4.42 3.54 c0 1.54 -1 2.32 -1.78 2.68 z M6.22 8.8 l-1.8 0 l0 2.5 l1.8 0 c1.14 0 1.52 -0.52 1.52 -1.26 c0 -0.8 -0.48 -1.24 -1.52 -1.24 z M6.72 17.2 c1.42 0 2.06 -0.6 2.06 -1.74 c0 -0.96 -0.64 -1.58 -2.22 -1.58 l-2.14 0 l0 3.32 l2.3 0 z M21.200000000000003 9.6 l3.16 0 l0 10.4 l-3.16 0 l0 -1.04 c-0.14 0.36 -1.08 1.24 -2.68 1.24 c-2.38 0 -5.12 -1.7 -5.12 -5.42 c0 -3.58 2.74 -5.36 5.12 -5.36 c1.6 0 2.54 0.92 2.68 1.14 l0 -0.96 z M18.98 17.42 c1.3 0 2.36 -0.9 2.36 -2.64 c0 -1.68 -1.06 -2.58 -2.36 -2.58 c-1.36 0 -2.52 0.92 -2.52 2.58 c0 1.72 1.16 2.64 2.52 2.64 z M33.6 20 l-3.38 -4.04 l-0.66 0.7 l0 3.34 l-3.16 0 l0 -3.78 l0 -10.36 l3.16 0 l0 6.94 l2.94 -3.2 l3.78 0 l-4.12 4.34 l5.04 6.06 l-3.6 0 z M45.300000000000004 9.44 c0.28 0 0.56 0 0.82 0.06 l0 3.02 c-0.24 -0.06 -0.52 -0.06 -0.72 -0.06 c-1.92 0 -3.46 1.38 -3.62 3.3 l0 4.24 l-3.16 0 l0 -10.4 l3.16 0 l0 2.54 c0.48 -1.56 1.68 -2.7 3.52 -2.7 z M56.18 9.56 l3.14 0 l-6.36 14.24 l-3.16 0 l1.92 -4.16 l-4.5 -10.08 l3.14 0 l2.92 6.68 z M66.68 9.42 c2.38 0 5.12 1.78 5.12 5.36 c0 3.72 -2.74 5.42 -5.12 5.42 c-1.6 0 -2.54 -0.88 -2.68 -1.24 l0 4.84 l-3.16 0 l0 -6.02 l0 -8.18 l3.16 0 l0 0.96 c0.14 -0.22 1.08 -1.14 2.68 -1.14 z M66.22 17.42 c1.36 0 2.52 -0.92 2.52 -2.64 c0 -1.66 -1.16 -2.58 -2.52 -2.58 c-1.3 0 -2.36 0.9 -2.36 2.58 c0 1.74 1.06 2.64 2.36 2.64 z M78.58 17.36 c0.56 0 0.96 -0.08 1.4 -0.2 l0 2.62 c-0.44 0.2 -1.16 0.34 -2.22 0.34 c-1.74 0 -3.2 -0.58 -3.2 -3.78 l0 -4.14 l-1.46 0 l0 -2.6 l1.46 0 l0 -2.44 l3.16 0 l0 2.44 l2.22 0 l0 2.6 l-2.22 0 l0 4.14 c0 0.46 0.12 1.02 0.86 1.02 z"></path></g>
			</g>
		</svg>
	